<svg width="14.000000" height="16.000000" viewBox="0 0 14 16" fill="none"
    xmlns="http://www.w3.org/2000/svg" xmlns:xlink="http://www.w3.org/1999/xlink">
    <path id="Vector"
        d="M13.73 13.07C13.81 12.99 13.88 12.89 13.92 12.78C13.97 12.67 13.99 12.55 14 12.44C14 12.32 13.97 12.2 13.93 12.09C13.89 11.98 13.82 11.88 13.74 11.8C13.66 11.72 13.56 11.65 13.45 11.61C13.34 11.56 13.23 11.54 13.11 11.54C13 11.54 12.88 11.57 12.78 11.61C12.67 11.66 12.57 11.73 12.49 11.81L11.36 12.96L11.36 6.22C11.36 5.98 11.27 5.76 11.11 5.59C10.94 5.42 10.72 5.33 10.49 5.33C10.26 5.33 10.04 5.42 9.87 5.59C9.71 5.76 9.62 5.98 9.62 6.22L9.62 12.96L8.49 11.81C8.32 11.65 8.1 11.56 7.87 11.56C7.64 11.56 7.42 11.66 7.26 11.82C7.1 11.99 7.01 12.21 7.01 12.44C7 12.68 7.09 12.9 7.25 13.07L9.87 15.73C10.04 15.9 10.26 16 10.49 16C10.72 16 10.94 15.9 11.11 15.73L13.73 13.07ZM6.74 2.92C6.9 3.09 6.99 3.31 6.98 3.55C6.98 3.78 6.89 4 6.73 4.17C6.57 4.33 6.35 4.43 6.12 4.43C5.89 4.43 5.67 4.34 5.5 4.18L4.37 3.03L4.37 9.77C4.37 10.01 4.28 10.23 4.12 10.4C3.95 10.57 3.73 10.66 3.5 10.66C3.27 10.66 3.05 10.57 2.88 10.4C2.72 10.23 2.63 10.01 2.63 9.77L2.63 3.03L1.5 4.18C1.42 4.26 1.32 4.33 1.21 4.38C1.11 4.42 0.99 4.45 0.88 4.45C0.76 4.45 0.65 4.43 0.54 4.38C0.43 4.34 0.33 4.27 0.25 4.19C0.17 4.11 0.1 4.01 0.06 3.9C0.02 3.79 -0.01 3.67 0 3.55C0 3.44 0.02 3.32 0.07 3.21C0.11 3.1 0.18 3 0.26 2.92L2.88 0.26C3.05 0.09 3.27 0 3.5 0C3.73 0 3.95 0.09 4.12 0.26L6.74 2.92Z"
        fill="currentColor" fill-opacity="1.000000" fill-rule="nonzero" />
</svg>