<svg viewBox="0 0 24 24" xmlns="http://www.w3.org/2000/svg"
    xmlns:xlink="http://www.w3.org/1999/xlink" width="24.000000" height="24.000000" fill="none">
    <rect id="lucide:settings-2" width="24.000000" height="24.000000" x="0.000000" y="0.000000"
        fill="rgb(255,255,255)" fill-opacity="0" />
    <g id="Group">
        <path id="Vector" d="M20 7L11 7" stroke="rgb(254,95,0)" stroke-linecap="round"
            stroke-linejoin="round" stroke-width="2" />
        <path id="Vector" d="M14 17L5 17" stroke="rgb(254,95,0)" stroke-linecap="round"
            stroke-linejoin="round" stroke-width="2" />
        <path id="Vector"
            d="M17 20C15.3431 20 14 18.6569 14 17C14 15.3431 15.3431 14 17 14C18.6569 14 20 15.3431 20 17C20 18.6569 18.6569 20 17 20Z"
            stroke="rgb(254,95,0)" stroke-linecap="round" stroke-linejoin="round" stroke-width="2" />
        <path id="Vector"
            d="M7 10C5.34315 10 4 8.65685 4 7C4 5.34315 5.34315 4 7 4C8.65685 4 10 5.34315 10 7C10 8.65685 8.65685 10 7 10Z"
            stroke="rgb(254,95,0)" stroke-linecap="round" stroke-linejoin="round" stroke-width="2" />
    </g>
</svg>