<svg viewBox="0 0 15.3066 12" xmlns="http://www.w3.org/2000/svg"
    xmlns:xlink="http://www.w3.org/1999/xlink" width="15.306641" height="12.000000" fill="none"
    customFrame="#000000">
    <path id="Vector"
        d="M15.2631 5.80019L13.6231 1.97349C13.5812 1.87468 13.5112 1.79037 13.4218 1.73107C13.3323 1.67177 13.2274 1.6401 13.1201 1.64002L11.4801 1.64002L11.4801 0.546672C11.4801 0.401686 11.4225 0.262638 11.32 0.160117C11.2175 0.0575958 11.0784 0 10.9334 0L0.546672 0C0.401686 0 0.262637 0.0575958 0.160117 0.160117C0.0575956 0.262638 4.85542e-16 0.401686 0 0.546672L0 9.8401C2.42771e-16 9.98509 0.0575956 10.1241 0.160117 10.2267C0.262637 10.3292 0.401686 10.3868 0.546672 10.3868L1.71655 10.3868C1.84244 10.85 2.11726 11.2589 2.49862 11.5505C2.87997 11.842 3.34667 12 3.8267 12C4.30674 12 4.77344 11.842 5.15479 11.5505C5.53615 11.2589 5.81097 10.85 5.93686 10.3868L9.36996 10.3868C9.49585 10.85 9.77067 11.2589 10.152 11.5505C10.5334 11.842 11.0001 12 11.4801 12C11.9601 12 12.4268 11.842 12.8082 11.5505C13.1896 11.2589 13.4644 10.85 13.5903 10.3868L14.7601 10.3868C14.9051 10.3868 15.0442 10.3292 15.1467 10.2267C15.2492 10.1241 15.3068 9.98509 15.3068 9.8401L15.3068 6.01339C15.3067 5.94011 15.2918 5.86761 15.2631 5.80019ZM11.4801 2.73336L12.7593 2.73336L13.9292 5.46672L11.4801 5.46672L11.4801 2.73336ZM3.8267 10.9334C3.61046 10.9334 3.39908 10.8693 3.21928 10.7492C3.03948 10.629 2.89934 10.4583 2.81659 10.2585C2.73383 10.0587 2.71218 9.83889 2.75437 9.6268C2.79656 9.41471 2.90069 9.21989 3.05359 9.06699C3.2065 8.91408 3.40132 8.80995 3.6134 8.76776C3.82549 8.72558 4.04533 8.74723 4.24511 8.82998C4.44489 8.91273 4.61565 9.05287 4.73579 9.23267C4.85593 9.41247 4.92005 9.62385 4.92005 9.8401C4.92005 10.1301 4.80486 10.4082 4.59982 10.6132C4.39477 10.8183 4.11668 10.9334 3.8267 10.9334ZM9.36996 9.29343L5.93686 9.29343C5.81097 8.83019 5.53615 8.42126 5.15479 8.12971C4.77344 7.83816 4.30674 7.6802 3.8267 7.6802C3.34667 7.6802 2.87997 7.83816 2.49862 8.12971C2.11726 8.42126 1.84244 8.83019 1.71655 9.29343L1.09334 9.29343L1.09334 1.09334L10.3868 1.09334L10.3868 7.95955C10.1378 8.10402 9.91988 8.29622 9.74539 8.52512C9.5709 8.75402 9.44332 9.01511 9.36996 9.29343ZM11.4801 10.9334C11.2639 10.9334 11.0525 10.8693 10.8727 10.7492C10.6929 10.629 10.5527 10.4583 10.47 10.2585C10.3872 10.0587 10.3656 9.83889 10.4078 9.6268C10.45 9.41471 10.5541 9.21989 10.707 9.06699C10.8599 8.91408 11.0547 8.80995 11.2668 8.76776C11.4789 8.72558 11.6987 8.74723 11.8985 8.82998C12.0983 8.91273 12.2691 9.05287 12.3892 9.23267C12.5093 9.41247 12.5735 9.62385 12.5735 9.8401C12.5735 10.1301 12.4583 10.4082 12.2532 10.6132C12.0482 10.8183 11.7701 10.9334 11.4801 10.9334ZM14.2135 9.29343L13.5903 9.29343C13.4694 8.82521 13.1967 8.41028 12.8149 8.11354C12.4331 7.81679 11.9637 7.65498 11.4801 7.65341L11.4801 6.56007L14.2135 6.56007L14.2135 9.29343Z"
        fill="rgb(184.875,184.875,184.875)" fill-rule="nonzero" />
</svg>