<svg viewBox="0 0 17.5 17.5" xmlns="http://www.w3.org/2000/svg"
    xmlns:xlink="http://www.w3.org/1999/xlink" width="17.500015" height="17.500000" fill="none"
    customFrame="#000000">
    <g id="Group">
        <path id="Vector"
            d="M11.8123 16.1429C12.783 15.7408 13.6648 15.1508 14.4068 14.4068C15.1508 13.6648 15.7408 12.783 16.1429 11.8123C16.5451 10.8415 16.7514 9.80078 16.75 8.75001C16.7513 7.69924 16.545 6.65856 16.1429 5.68778C15.7408 4.717 15.1508 3.83525 14.4068 3.09321C13.6648 2.34922 12.783 1.75921 11.8123 1.35708C10.8415 0.954956 9.80078 0.748645 8.75001 0.750007C7.69924 0.748667 6.65856 0.954988 5.68778 1.35711C4.717 1.75924 3.83525 2.34924 3.09321 3.09321C2.34924 3.83525 1.75924 4.717 1.35711 5.68778C0.954988 6.65856 0.748667 7.69924 0.750007 8.75001C0.748645 9.80078 0.954956 10.8415 1.35708 11.8123C1.75921 12.783 2.34922 13.6648 3.09321 14.4068C3.83525 15.1508 4.717 15.7408 5.68778 16.1429C6.65856 16.545 7.69924 16.7513 8.75001 16.75C9.80078 16.7514 10.8415 16.5451 11.8123 16.1429Z"
            fill-rule="nonzero" stroke="currentColor" stroke-linejoin="round" stroke-width="1.5" />
        <path id="Vector" d="M5.54999 8.7501L7.94999 11.1501L12.75 6.3501" fill-rule="nonzero"
            stroke="currentColor" stroke-linecap="round" stroke-linejoin="round" stroke-width="1.5" />
    </g>
</svg>